<?xml version="1.0" ?><svg width="32px" height="32px" viewBox="0 0 32 32" xmlns="http://www.w3.org/2000/svg"><title/><g data-name="filled line" id="filled_line"><path d="M16.1152,20a1,1,0,0,0-1,1v8a1,1,0,1,0,2,0V21A1,1,0,0,0,16.1152,20Z" style="fill:#f6ae2d"/><path d="M23,21.1538a1,1,0,0,0-1,1V28a1,1,0,0,0,2,0V22.1538A1,1,0,0,0,23,21.1538Z" style="fill:#f6ae2d"/><path d="M9,21.1538a1,1,0,0,0-1,1V28a1,1,0,0,0,2,0V22.1538A1,1,0,0,0,9,21.1538Z" style="fill:#f6ae2d"/><path d="M11.9766,21.4111,10.4058,18.7a.995.995,0,0,0-.99-.4907,3.39,3.39,0,0,1-.8325,0,.996.996,0,0,0-.99.4907L6.0225,21.4111a1,1,0,0,0,.8652,1.5015h4.2236a1,1,0,0,0,.8653-1.5015Z" style="fill:#61b636"/><path d="M23.0425,8a.9278.9278,0,0,0-.7744.3584,1,1,0,0,0-.2159.8247,4.495,4.495,0,0,1,.063.8169,6.0127,6.0127,0,0,1-3.9423,5.63,1,1,0,0,0-.5372,1.4155,6.0835,6.0835,0,0,0,4.7115,3.1484,5.9967,5.9967,0,0,0,1.3022.0005A6.1147,6.1147,0,0,0,23.0425,8Z" style="fill:#246eb9"/><path d="M25.9766,21.4111,24.4058,18.7a.9963.9963,0,0,0-.99-.4907,3.39,3.39,0,0,1-.8325,0,.9944.9944,0,0,0-.99.4907l-1.5713,2.7109a1,1,0,0,0,.8652,1.5015h4.2236a1,1,0,0,0,.8653-1.5015Z" style="fill:#246eb9"/><path d="M14.4634,16.1553a.9979.9979,0,0,0-.5689-.5845A5.9649,5.9649,0,0,1,10.1152,10a4.3692,4.3692,0,0,1,.0625-.8062A1,1,0,0,0,9.3335,8.02,2.318,2.318,0,0,0,8.9951,8a6.1146,6.1146,0,0,0-.6479,12.1943,5.9876,5.9876,0,0,0,1.3012.0005,6.1037,6.1037,0,0,0,4.76-3.226A.999.999,0,0,0,14.4634,16.1553Z" style="fill:#61b636"/><path d="M24.0254,8.86A7.9894,7.9894,0,0,0,8.2119,8.8257,6.272,6.272,0,0,0,8.1152,10a7.95,7.95,0,0,0,5.0269,7.4238,7.6579,7.6579,0,0,0,2.1079.5283A7,7,0,0,0,16.1152,18a6.8851,6.8851,0,0,0,.8428-.0454,7.4323,7.4323,0,0,0,1.8994-.4453A8.0177,8.0177,0,0,0,24.1152,10,6.2941,6.2941,0,0,0,24.0254,8.86Z" style="fill:#d32344"/><path d="M19.87,20.1685l-2.15-3.71a1.0023,1.0023,0,0,0-.9907-.4907,4.9786,4.9786,0,0,1-1.23,0,.9905.9905,0,0,0-.99.4907l-2.15,3.71a1,1,0,0,0,.8652,1.5014h5.78a1,1,0,0,0,.8652-1.5014Z" style="fill:#d32344"/><path d="M29.1152,14.12A6.134,6.134,0,0,0,23.869,8.069,7.99,7.99,0,0,0,8.3676,8.0322a6.1042,6.1042,0,0,0-1.44,11.818l-.9047,1.5609a1,1,0,0,0,.8652,1.5015H8V28a1,1,0,0,0,2,0V22.9126h1.1118a1,1,0,0,0,.8653-1.5015l-.8959-1.546a6.09,6.09,0,0,0,2.3536-1.5508L12.36,20.1685a1,1,0,0,0,.8652,1.5014h1.89V29a1,1,0,1,0,2,0V21.67h1.89a1,1,0,0,0,.8652-1.5014l-.7891-1.3618a6.084,6.084,0,0,0,1.8375,1.0585l-.896,1.5459a1,1,0,0,0,.8652,1.5015H22V28a1,1,0,0,0,2,0V22.9126h1.1118a1,1,0,0,0,.8653-1.5015L25.072,19.85A6.0779,6.0779,0,0,0,29.1152,14.12ZM16.1152,4a6.0231,6.0231,0,0,1,5.937,5.1831,4.495,4.495,0,0,1,.063.8169,5.9258,5.9258,0,0,1-.0861.9832,6.0254,6.0254,0,0,1-3.8733,4.6535,5.529,5.529,0,0,1-1.4263.3311,4.9226,4.9226,0,0,1-.7371.03,5.0562,5.0562,0,0,1-.5105-.0324,5.736,5.736,0,0,1-1.5874-.395A5.9649,5.9649,0,0,1,10.1152,10a4.5248,4.5248,0,0,1,.07-.853A6.0007,6.0007,0,0,1,16.1152,4ZM4.8848,14.12a4.1194,4.1194,0,0,1,3.2309-4.0166,8.1278,8.1278,0,0,0,.0883,1.082c.012.0817.0357.16.05.2405a7.9923,7.9923,0,0,0,.1946.8523c.038.1293.0877.2529.1321.38.078.2226.16.4424.257.656.0613.1354.13.2659.1984.3974.1017.1944.21.384.327.5691.0824.13.1668.2574.2565.3824.1256.1748.2606.3416.4.5058.1.1174.1972.2357.304.3474.1556.1627.3237.313.4935.4626.1077.0949.2088.1955.322.2847a7.99,7.99,0,0,0,.8215.5668c.028.0169.052.0387.08.0553A4.09,4.09,0,0,1,9.437,18.2061a4.0271,4.0271,0,0,1-.8774,0A4.0971,4.0971,0,0,1,4.8848,14.12ZM8.623,20.9126,9,20.2627l.3765.65ZM14.96,19.67l.9688-1.6719c.05.0012.1,0,.1507,0,.012,0,.0234.002.0353.002s.0237-.0019.0363-.002c.05,0,.1.0012.1493,0L17.27,19.67Zm7.6626,1.2427.3765-.65.3765.65Zm.814-2.7065a4.019,4.019,0,0,1-.8765,0,4.0943,4.0943,0,0,1-2.5273-1.2368,7.9455,7.9455,0,0,0,.9256-.6147c.0858-.0655.1617-.1407.2446-.2095a8.0138,8.0138,0,0,0,.6012-.5434c.0971-.0988.1853-.2039.277-.3074.1594-.18.3126-.3633.4552-.5564.0863-.1169.1676-.2358.2474-.3572.13-.1979.25-.4013.3625-.61.0676-.1256.1354-.25.1963-.3789.1076-.228.1988-.4629.2847-.701.0428-.1187.092-.2339.1293-.3549a7.95,7.95,0,0,0,.2349-.9879c.0071-.0417.0208-.0812.0273-.123a7.9062,7.9062,0,0,0,.0946-1.07,4.1142,4.1142,0,0,1-.6768,8.0518Z"/></g></svg>