<?xml version="1.0" ?><svg width="32px" height="32px" viewBox="0 0 32 32" xmlns="http://www.w3.org/2000/svg"><title/><g data-name="filled line" id="filled_line"><path d="M16,2a1,1,0,0,0-1,1V8a1,1,0,0,0,2,0V3A1,1,0,0,0,16,2Z" style="fill:#d32344"/><path d="M30,21v8a1.0029,1.0029,0,0,1-1,1H3a1.0029,1.0029,0,0,1-1-1V21a1.0327,1.0327,0,0,1,.29-.71l13-13c.01-.01.01-.01.02-.01a.9966.9966,0,0,1,1.38,0c.01,0,.01,0,.02.01l13,13A1.0327,1.0327,0,0,1,30,21Z" style="fill:#d32344"/><path d="M25,21v9H7V21a.9309.9309,0,0,1,.15-.52l8-13a.9944.9944,0,0,1,1.7,0l8,13A.9309.9309,0,0,1,25,21Z" style="fill:#eeeced"/><path d="M19.9746,20.7749l-3-13a1,1,0,0,0-1.9492,0l-3,13A1.03,1.03,0,0,0,12,21v3.92a1,1,0,0,0,1.6846.729A3.3513,3.3513,0,0,1,16,25a3.3513,3.3513,0,0,1,2.3154.6489A1,1,0,0,0,20,24.92V21A1.03,1.03,0,0,0,19.9746,20.7749Z" style="fill:#d32344"/><path d="M21,28v2H11V28a5.0586,5.0586,0,0,1,1.3-3.8A5.1682,5.1682,0,0,1,16,23a5.1253,5.1253,0,0,1,3.68,1.19.1756.1756,0,0,0,.05.04.0215.0215,0,0,0,.02.02A5.1019,5.1019,0,0,1,21,28Z" style="fill:#f6ae2d"/><path d="M21,2H16a1,1,0,0,0-1,1V7h6a1,1,0,0,0,1-1V3A1,1,0,0,0,21,2Z" style="fill:#f6ae2d"/><path d="M29.707,20.293,17,7.5859V7h4a1,1,0,0,0,1-1V3a1,1,0,0,0-1-1H16a1,1,0,0,0-1,1V7.5859L2.293,20.293A1,1,0,0,0,2,21v8a1,1,0,0,0,1,1H29a1,1,0,0,0,1-1V21A1,1,0,0,0,29.707,20.293ZM18,23.2544c-.1787-.0525-.3807-.0816-.5757-.1177-.1087-.02-.2075-.0506-.3214-.0658a8.6049,8.6049,0,0,0-2.207,0c-.1059.0141-.1977.0426-.2992.0612a5.99,5.99,0,0,0-.5967.122V21.1138l2-8.6665,2,8.6665ZM20,5H17V4h3ZM4,21.4141l6.6852-6.6852L7.1484,20.4761A1.0018,1.0018,0,0,0,7,21v7H4Zm5-.1309,4.653-7.561-1.6276,7.0527A1.03,1.03,0,0,0,12,21v3.58A5.314,5.314,0,0,0,11,28H9ZM13,28a3.2022,3.2022,0,0,1,.6846-2.3511A3.3513,3.3513,0,0,1,16,25a6.482,6.482,0,0,1,.7471.0405c.0782.0091.1417.0285.2155.0406a4.1456,4.1456,0,0,1,.4187.08c.0807.0224.1448.0562.2187.0832a2.6708,2.6708,0,0,1,.3008.117,1.8179,1.8179,0,0,1,.1887.1289,1.7941,1.7941,0,0,1,.2207.1549c.012.012.0239.0241.0365.0354A3.288,3.288,0,0,1,19,28Zm8,0a5.3192,5.3192,0,0,0-1-3.42V21a1.03,1.03,0,0,0-.0254-.2251L18.347,13.7222,23,21.2832V28Zm7,0H25V21a1.0018,1.0018,0,0,0-.1484-.5239l-3.5368-5.7472L28,21.4141Z"/></g></svg>