<?xml version="1.0" ?><svg width="32px" height="32px" viewBox="0 0 32 32" xmlns="http://www.w3.org/2000/svg"><title/><g data-name="filled line" id="filled_line"><path d="M28,17H22a1,1,0,0,0-1,1v6a1,1,0,0,0,1.5547.832L25,23.2021l2.4453,1.63A1,1,0,0,0,29,24V18A1,1,0,0,0,28,17Z" style="fill:#f6ae2d"/><path d="M19,17H13a1,1,0,0,0-1,1v6a1,1,0,0,0,1.5547.832L16,23.2021l2.4453,1.63A1,1,0,0,0,20,24V18A1,1,0,0,0,19,17Z" style="fill:#61b636"/><path d="M10,17H4a1,1,0,0,0-1,1v6a1,1,0,0,0,1.5547.832L7,23.2021l2.4453,1.63A1,1,0,0,0,11,24V18A1,1,0,0,0,10,17Z" style="fill:#f6ae2d"/><path d="M28,7H22a1,1,0,0,0-1,1v6a1,1,0,0,0,1.5547.832L25,13.2021l2.4453,1.63A1,1,0,0,0,29,14V8A1,1,0,0,0,28,7Z" style="fill:#61b636"/><path d="M19,7H13a1,1,0,0,0-1,1v6a1,1,0,0,0,1.5547.832L16,13.2021l2.4453,1.63A1,1,0,0,0,20,14V8A1,1,0,0,0,19,7Z" style="fill:#246eb9"/><path d="M10,7H4A1,1,0,0,0,3,8v6a1,1,0,0,0,1.5547.832L7,13.2021l2.4453,1.63A1,1,0,0,0,11,14V8A1,1,0,0,0,10,7Z" style="fill:#61b636"/><path d="M29,17H3a1,1,0,0,0,0,2H29a1,1,0,0,0,0-2Z" style="fill:#d32344"/><path d="M29,7H3A1,1,0,0,0,3,9H29a1,1,0,0,0,0-2Z" style="fill:#d32344"/><path d="M29,17H3a1,1,0,0,0,0,2v5a1,1,0,0,0,1.5547.832L7,23.2021l2.4453,1.63A1,1,0,0,0,11,24V19h1v5a1,1,0,0,0,1.5547.832L16,23.2021l2.4453,1.63A1,1,0,0,0,20,24V19h1v5a1,1,0,0,0,1.5547.832L25,23.2021l2.4453,1.63A1,1,0,0,0,29,24V19a1,1,0,0,0,0-2ZM9,22.1318,7.5547,21.168a1,1,0,0,0-1.1094,0L5,22.1318V19H9Zm9,0-1.4453-.9638a1,1,0,0,0-1.1094,0L14,22.1318V19h4Zm9,0-1.4453-.9638a1,1,0,0,0-1.1094,0L23,22.1318V19h4Z"/><path d="M3,9v5a1,1,0,0,0,1.5547.832L7,13.2021l2.4453,1.63A1,1,0,0,0,11,14V9h1v5a1,1,0,0,0,1.5547.832L16,13.2021l2.4453,1.63A1,1,0,0,0,20,14V9h1v5a1,1,0,0,0,1.5547.832L25,13.2021l2.4453,1.63A1,1,0,0,0,29,14V9a1,1,0,0,0,0-2H3A1,1,0,0,0,3,9ZM27,9v3.1318l-1.4453-.9638a1,1,0,0,0-1.1094,0L23,12.1318V9ZM18,9v3.1318l-1.4453-.9638a1,1,0,0,0-1.1094,0L14,12.1318V9ZM9,9v3.1318L7.5547,11.168a1,1,0,0,0-1.1094,0L5,12.1318V9Z"/></g></svg>